<svg xmlns="http://www.w3.org/2000/svg" width="90" height="25" viewBox="0 0 90 25">
    <defs>
        <style>
            .cls-2{fill:#fff;isolation:isolate}
        </style>
    </defs>
    <g id="Group_6" transform="translate(-250.061 -665.138)">
        <path id="Rectangle_6" fill="none" d="M0 0H90V25H0z" transform="translate(250.061 665.138)"/>
        <g id="Group_5" transform="translate(250.358 665.545)">
            <path id="Path_13" d="M251.045 692.961l4.436-19.713h7.6l4.435 19.713h-4l-.783-3.566h-6.9l-.783 3.566zm7.537-16.408l-2 9.364h5.392l-2-9.364z" class="cls-2" transform="translate(-251.045 -668.757)"/>
            <path id="Path_14" d="M295.187 692.414a26.384 26.384 0 0 1-5.538.667 10.53 10.53 0 0 1-3.942-.609 4.856 4.856 0 0 1-2.319-1.942 8.608 8.608 0 0 1-1.16-3.131 26.518 26.518 0 0 1-.319-4.523q0-5.71 1.609-7.958t5.928-2.247a25.23 25.23 0 0 1 5.77.783l-.116 3.189a32.929 32.929 0 0 0-4.769-.435 5.373 5.373 0 0 0-2.711.507 3.135 3.135 0 0 0-1.2 1.928 20.6 20.6 0 0 0-.392 4.841 9.908 9.908 0 0 0 .8 4.74q.8 1.32 3.188 1.32a34.186 34.186 0 0 0 5.088-.406z" class="cls-2" transform="translate(-263.268 -668.529)"/>
            <path id="Path_15" d="M346.2 686.352v6.61h-4v-19.714h7.653q6.958 0 6.958 6.494a6.236 6.236 0 0 1-2.9 5.682l2.812 7.537h-4.378l-2.29-6.61zm5.827-4.291a3.557 3.557 0 0 0 .7-2.29 3.3 3.3 0 0 0-.739-2.261 2.688 2.688 0 0 0-2.131-.841H346.2v6.262h3.711a2.547 2.547 0 0 0 2.114-.87z" class="cls-2" transform="translate(-287.145 -668.757)"/>
            <path id="Path_16" d="M372.917 692.961v-19.713h6.755l4.754 16.235h.29v-16.235h4v19.713h-6.581l-4.928-16.234h-.29v16.234z" class="cls-2" transform="translate(-299.311 -668.757)"/>
            <path id="Path_17" d="M322.791 686.256a2.056 2.056 0 0 0-2.056 2.057v.045a11.1 11.1 0 0 1-.855 5.1 4.132 4.132 0 0 1-6.407 0 11.079 11.079 0 0 1-.855-5.1 2.107 2.107 0 0 0-2.1-2.1h-1.928c-.056.658-.089 1.349-.089 2.087q0 5.218 1.841 7.668t6.334 2.45q4.493 0 6.335-2.45t1.84-7.668c0-.739-.033-1.429-.089-2.087z" class="cls-2" transform="translate(-273.8 -673.909)"/>
            <path id="Path_18" fill="#fff" d="M323.253 672.492a6.492 6.492 0 0 0-4.762-2.438l-.074-.212q-.522-1.681-1.015-4.03h-3.914a14.419 14.419 0 0 0 1.678 4.263 6.4 6.4 0 0 0-4.582 2.417 9.365 9.365 0 0 0-1.473 3.667h15.614a9.364 9.364 0 0 0-1.472-3.667z" transform="translate(-274.041 -665.812)"/>
        </g>
    </g>
</svg>
